<?xml version="1.0" standalone="no"?>
<!DOCTYPE svg PUBLIC "-//W3C//DTD SVG 20010904//EN"
        "http://www.w3.org/TR/2001/REC-SVG-20010904/DTD/svg10.dtd">
<svg version="1.0" xmlns="http://www.w3.org/2000/svg"
     width="248.000000pt" height="248.000000pt" viewBox="0 0 248.000000 248.000000"
     preserveAspectRatio="xMidYMid meet">
    <metadata>
        Created by potrace 1.16, written by Peter Selinger 2001-2019
    </metadata>
    <g transform="translate(0.000000,248.000000) scale(0.100000,-0.100000)"
       fill="#000000" stroke="none">
        <path d="M1206 2111 l-330 -330 -39 21 c-83 42 -206 61 -282 44 -142 -32 -256
-119 -315 -241 -137 -281 57 -615 367 -631 229 -11 426 148 462 373 14 87 -7
213 -44 269 -8 13 -15 29 -15 36 0 7 174 187 387 400 l388 388 -125 0 -125 0
-329 -329z m-446 -422 c126 -55 202 -206 170 -341 -45 -192 -249 -290 -431
-206 -98 45 -169 160 -169 274 0 94 73 218 154 260 86 45 189 50 276 13z"/>
        <path d="M2035 1430 l-401 -401 -58 27 c-296 135 -626 -76 -626 -399 0 -124
40 -219 129 -308 89 -89 186 -129 312 -129 214 0 394 154 431 370 15 86 3 171
-36 256 l-27 58 341 341 341 341 -3 122 -3 122 -400 -400z m-515 -498 c61 -32
106 -77 138 -137 23 -43 27 -62 27 -140 0 -73 -4 -98 -22 -130 -54 -101 -158
-166 -266 -167 -119 0 -196 39 -259 132 -112 167 -31 399 162 461 50 16 172 5
220 -19z"/>
    </g>
</svg>
