<?xml version="1.0" standalone="no"?>
<!DOCTYPE svg PUBLIC "-//W3C//DTD SVG 20010904//EN"
        "http://www.w3.org/TR/2001/REC-SVG-20010904/DTD/svg10.dtd">
<svg version="1.0"
     xmlns="http://www.w3.org/2000/svg"
     width="248.000000pt"
     height="248.000000pt"
     viewBox="0 0 248.000000 248.000000"
     preserveAspectRatio="xMidYMid meet">
    <metadata>Created by potrace 1.16, written by Peter Selinger 2001-2019</metadata>
    <g transform="translate(0.000000,248.000000) scale(0.100000,-0.100000)"
       fill="#ffffff" stroke="none">
        <path d="M40 1245 l0 -1195 1200 0 1200 0 0 1195 0 1195 -1200 0 -1200 0 0
        -1195z m2243 642 l26 -78 -22 -8 c-12 -4 -79 -28 -149 -52 -71 -24 -128 -49
        -128 -55 0 -7 65 -268 145 -580 79 -312 144 -568 142 -569 -16 -10 -164 -42
         -168 -37 -4 4 -71 260 -149 570 -79 309 -146 562 -150 562 -14 0 -1124 -390
         -1131 -398 -4 -4 -39 -171 -78 -371 -39 -201 -73 -366 -74 -368 -2 -1 -43 5
         -91 14 -79 16 -87 19 -82 38 23 101 117 607 113 611 -3 3 -64 -15 -136 -40
           -95 -33 -133 -42 -136 -33 -39 104 -53 158 -42 162 641 228 2074 721 2078 717
            4 -4 18 -42 32 -85z"/>
    </g>
</svg>