<?xml version="1.0" standalone="no"?>
<!DOCTYPE svg PUBLIC "-//W3C//DTD SVG 20010904//EN"
        "http://www.w3.org/TR/2001/REC-SVG-20010904/DTD/svg10.dtd">
<svg version="1.0" xmlns="http://www.w3.org/2000/svg"
     width="248.000000pt" height="248.000000pt" viewBox="0 0 248.000000 248.000000"
     preserveAspectRatio="xMidYMid meet">
    <metadata>
        Created by potrace 1.16, written by Peter Selinger 2001-2019
    </metadata>
    <g transform="translate(0.000000,248.000000) scale(0.100000,-0.100000)"
       fill="#000000" stroke="none">
        <path d="M0 1240 l0 -1240 1240 0 1240 0 0 1240 0 1240 -1240 0 -1240 0 0
-1240z m2440 0 l0 -1200 -1200 0 -1200 0 0 1200 0 1200 1200 0 1200 0 0 -1200z"/>
        <path d="M360 2065 l0 -75 55 0 c30 0 55 -1 55 -3 0 -1 -54 -380 -120 -842
-66 -462 -120 -845 -120 -852 0 -7 6 -13 13 -13 10 0 41 192 124 768 l111 767
1 -797 1 -798 75 0 75 0 1 783 1 782 109 -750 c59 -412 108 -751 109 -752 0
-2 7 -3 15 -3 12 0 15 7 10 33 -12 68 -235 1642 -235 1659 0 17 31 18 603 18
l603 0 -117 -822 c-65 -453 -120 -838 -123 -856 -3 -23 -1 -32 10 -32 8 0 14
1 15 3 0 1 51 353 114 782 l113 780 1 -812 1 -813 70 0 70 0 1 803 1 802 111
-772 c81 -557 115 -773 124 -773 7 0 13 8 13 18 0 17 -223 1591 -235 1660 l-6
32 61 0 60 0 0 75 0 75 -885 0 -885 0 0 -75z"/>
    </g>
</svg>
