<?xml version="1.0" standalone="no"?>
<!DOCTYPE svg PUBLIC "-//W3C//DTD SVG 20010904//EN"
        "http://www.w3.org/TR/2001/REC-SVG-20010904/DTD/svg10.dtd">
<svg version="1.0" xmlns="http://www.w3.org/2000/svg"
     width="248.000000pt" height="248.000000pt" viewBox="0 0 248.000000 248.000000"
     preserveAspectRatio="xMidYMid meet">
    <metadata>
        Created by potrace 1.16, written by Peter Selinger 2001-2019
    </metadata>
    <g transform="translate(0.000000,248.000000) scale(0.100000,-0.100000)"
       fill="#000000" stroke="none">
        <path d="M0 1240 l0 -1240 1240 0 1240 0 0 1240 0 1240 -1240 0 -1240 0 0
-1240z m2440 0 l0 -1200 -1200 0 -1200 0 0 1200 0 1200 1200 0 1200 0 0 -1200z"/>
        <path d="M460 1480 l0 -70 145 0 145 0 0 -65 0 -65 -300 0 -300 0 0 -70 0 -70
145 0 145 0 0 -475 0 -475 100 0 100 0 0 475 0 475 55 0 55 0 0 -340 0 -340
100 0 100 0 0 340 0 340 290 0 290 0 0 -475 0 -475 100 0 100 0 0 475 0 475
55 0 55 0 0 -340 0 -340 100 0 100 0 0 475 0 475 145 0 145 0 0 70 0 70 -935
0 -935 0 0 -70z m1380 -135 l0 -65 -445 0 -445 0 0 65 0 65 445 0 445 0 0 -65z"/>
    </g>
</svg>
