<?xml version="1.0" standalone="no"?>
<!DOCTYPE svg PUBLIC "-//W3C//DTD SVG 20010904//EN"
        "http://www.w3.org/TR/2001/REC-SVG-20010904/DTD/svg10.dtd">
<svg version="1.0" xmlns="http://www.w3.org/2000/svg"
     width="248.000000pt" height="248.000000pt" viewBox="0 0 248.000000 248.000000"
     preserveAspectRatio="xMidYMid meet">
    <metadata>
        Created by potrace 1.16, written by Peter Selinger 2001-2019
    </metadata>
    <g transform="translate(0.000000,248.000000) scale(0.100000,-0.100000)"
       fill="#ffffff" stroke="none">
        <path d="M40 1240 l0 -1200 1200 0 1200 0 0 772 0 773 -340 -340 -341 -341 27
-57 c39 -86 51 -171 36 -257 -37 -216 -217 -370 -431 -370 -126 0 -223 40
-312 129 -89 89 -129 184 -129 308 0 323 330 534 626 399 l58 -27 403 403 403
403 0 302 0 303 -328 0 -327 0 -388 -388 c-213 -213 -387 -393 -387 -400 0 -7
7 -23 15 -36 37 -56 58 -182 44 -269 -36 -225 -233 -384 -462 -373 -162 9
-298 101 -369 252 -110 235 6 516 248 599 69 24 81 26 152 26 67 0 136 -17
199 -49 l39 -21 330 330 329 329 -748 0 -747 0 0 -1200z"/>
        <path d="M565 1706 c-27 -7 -64 -21 -81 -30 -81 -42 -154 -166 -154 -260 0
-114 71 -229 169 -274 182 -84 386 14 431 206 50 214 -154 413 -365 358z"/>
        <path d="M1300 951 c-73 -23 -147 -86 -182 -155 -66 -129 -22 -306 97 -388
117 -81 287 -64 388 38 66 67 82 106 82 209 0 78 -4 97 -27 140 -55 104 -141
159 -258 162 -41 1 -86 -1 -100 -6z"/>
    </g>
</svg>
