<?xml version="1.0" standalone="no"?>
<!DOCTYPE svg PUBLIC "-//W3C//DTD SVG 20010904//EN"
        "http://www.w3.org/TR/2001/REC-SVG-20010904/DTD/svg10.dtd">
<svg version="1.0" xmlns="http://www.w3.org/2000/svg"
     width="248.000000pt" height="248.000000pt" viewBox="0 0 248.000000 248.000000"
     preserveAspectRatio="xMidYMid meet">
    <metadata>
        Created by potrace 1.16, written by Peter Selinger 2001-2019
    </metadata>
    <g transform="translate(0.000000,248.000000) scale(0.100000,-0.100000)"
       fill="#000000" stroke="none">
        <path d="M35 2418 c-3 -13 -4 -549 -3 -1193 l3 -1170 1202 -3 1203 -2 0 1195
0 1195 -1200 0 -1200 0 -5 -22z m2375 -1178 l0 -1180 -1185 0 -1185 0 0 1180
0 1180 1185 0 1185 0 0 -1180z"/>
        <path d="M1215 1619 c-566 -198 -1035 -361 -1042 -364 -11 -4 3 -58 42 -162 3
-9 41 0 136 33 72 25 133 43 136 40 4 -4 -90 -510 -113 -611 -5 -19 3 -22 82
-38 48 -9 89 -15 91 -14 1 2 35 167 74 368 39 200 74 367 78 371 7 8 1117 398
1131 398 4 0 71 -253 150 -562 78 -310 145 -566 149 -570 4 -5 152 27 168 37
2 1 -63 257 -142 569 -80 312 -145 573 -145 580 0 6 57 31 128 55 70 24 137
48 149 52 l22 8 -26 78 c-14 43 -28 81 -32 85 -3 3 -469 -155 -1036 -353z"/>
    </g>
</svg>
